# xmcd
#
# Track frame offsets:
#	150
#	13382
#	27320
#	45652
#	64172
#
# Disc length: 1090
#
# Revision: 3
# Processed by: cddbd v1.5.1PL0 Copyright (c) Steve Scherf et al.
# Submitted via: DiscPlay 4.0.4
# Normalized: r1:TDELIM( - ),TSWAP
#
DISCID=3f044005
DTITLE=Harley-Davidson - Country Road Songs Sampler
DYEAR=1900
DGENRE=
TTITLE0=John Bunzow - Desolation Road
TTITLE1=Johm Berry - Ninety Miles an Hour
TTITLE2=Tanya Tucker - The Thunder Rolls
TTITLE3=Nitty Gritty Dirt Band - Let It Roll
TTITLE4=Trace Adkins - A Bad Way Of Saying Goodbye
EXTD=
EXTT0=
EXTT1=
EXTT2=
EXTT3=
EXTT4=
PLAYORDER=
